<svg class="header__home-logo-graphic" xmlns="http://www.w3.org/2000/svg" xml:space="preserve" viewBox="0 0 1417.3 1417.3">
                <path class="white" d="M946.5 409.9v399.3c0 110.1 88.2 199.3 197.1 199.6V409.9z"></path>
                <path class="white" d="M1356.8 409.9h-198.2v598.9h.6c109.1 0 197.6-89.4 197.6-199.6zM710.7 602.1v218.4H508.5c7.7 105.2 95.3 188.2 202.2 188.2 112 0 202.8-91 202.8-203.3s-90.8-203.3-202.8-203.3"></path>
                <path class="white" d="M697.3 813.1V596.5h202.2c-7.7-104.3-95.3-186.6-202.2-186.6-112 0-202.8 90.3-202.8 201.6s90.8 201.6 202.8 201.6"></path>
                <path class="white" d="M473.6 859.2c0 82.6-66.3 149.5-148 149.5h-52.7V409.9h52.2c80 .3 144.7 67.1 144.7 149.5s-64.7 149.2-144.7 149.5h.5v.8c81.7 0 148 66.9 148 149.5"></path>
                <path class="white" d="M258.7 719.1V409.4h-198v598.9h198v-9.8z"></path>
                <path class="navy-blue" d="M1397.3 20v1377.3H20V20zm20-20H0v1417.3h1417.3z"></path>
            </svg>